<svg version="1.1" xmlns="http://www.w3.org/2000/svg" xmlns:xlink="http://www.w3.org/1999/xlink" width="48" height="48"><defs><linearGradient x1="12.23187" y1="12.23187" x2="68.55907" y2="68.55907" gradientUnits="userSpaceOnUse" id="color-1"><stop offset="0" stop-color="#000000" stop-opacity="0.49"></stop><stop offset="1" stop-color="#000000" stop-opacity="0"></stop></linearGradient><clipPath id="clip-1"><path d="M16.27273,34h15.45455v-20h-15.45455z" id="clipPath16 1" fill="none"></path></clipPath><clipPath id="clip-2"><path d="M16.27273,34h15.45455v-20h-15.45455z" id="clipPath28 1"></path></clipPath><linearGradient x1="33.625" y1="14.375" x2="43" y2="23.75" gradientUnits="userSpaceOnUse" id="color-2"><stop offset="0" stop-color="#000000" stop-opacity="0.49"></stop><stop offset="1" stop-color="#000000" stop-opacity="0"></stop></linearGradient><filter id="dropshadow-base"><feColorMatrix type="matrix" values="0 0 0 0 0  0 0 0 0 0  0 0 0 0 0  0 0 0 .8 0"></feColorMatrix> <feOffset dx="0" dy="1"></feOffset> <feGaussianBlur stdDeviation="1"></feGaussianBlur> <feComposite in="SourceGraphic"></feComposite></filter><filter id="dropshadow-banner" x="-10%" y="-10%" width="120%" height="130%"><feColorMatrix type="matrix" values="0 0 0 0 0  0 0 0 0 0  0 0 0 0 0  0 0 0 .4 0"></feColorMatrix> <feOffset dx="0" dy="1"></feOffset> <feGaussianBlur stdDeviation="0.5"></feGaussianBlur> <feComposite in="SourceGraphic"></feComposite></filter></defs><g fill="none" fill-rule="nonzero" stroke="none" stroke-width="none" stroke-linecap="butt" stroke-linejoin="miter" stroke-miterlimit="10" stroke-dasharray="" stroke-dashoffset="0" font-family="none" font-weight="none" font-size="none" text-anchor="none" style="mix-blend-mode: normal"><path d="M7,43c-1.10457,0 -2,-0.89543 -2,-2v-34c0,-1.10457 0.89543,-2 2,-2l26,0l10,10v26c0,1.10457 -0.89543,2 -2,2z" id="base 1 5 1 1 1 2" fill="#2d6da8" stroke-width="1"></path><path d="M12.23187,12.23187h5.88407l2.94203,2.94203v-2.94203h5.88407l2.94203,2.94203v-2.94203h5.88407l7.23187,7.23187v21.53627c0,1.10457 -0.89543,2 -2,2l-21.53627,0l-7.23187,-7.23187v-5.88407l2.94203,0l-2.94203,-2.94203v-5.88407h2.94203l-2.94203,-2.94203z" fill="url(#color-1)" stroke-width="1"></path><path d="M12.23187,18.11593h5.88407v-5.88407h-5.88407zM21.05797,35.76813h5.88407v-5.88407h-5.88407zM12.23187,35.76813h5.88407v-5.88407h-5.88407zM12.23187,26.94203h5.88407v-5.88407h-5.88407zM21.05797,26.94203h5.88407v-5.88407h-5.88407zM29.88407,12.23187v5.88407h5.88407v-5.88407zM21.05797,18.11593h5.88407v-5.88407h-5.88407zM29.88407,26.94203h5.88407v-5.88407h-5.88407zM29.88407,35.76813h5.88407v-5.88407h-5.88407z" fill="none" stroke-width="0"></path><path d="M12.23187,12.23187h5.88407v5.88407h-5.88407zM21.05797,29.88407h5.88407v5.88407h-5.88407zM12.23187,29.88407h5.88407v5.88407h-5.88407zM12.23187,21.05797h5.88407v5.88407h-5.88407zM21.05797,21.05797h5.88407v5.88407h-5.88407zM35.76813,12.23187v5.88407h-5.88407v-5.88407zM21.05797,12.23187h5.88407v5.88407h-5.88407zM29.88407,21.05797h5.88407v5.88407h-5.88407zM29.88407,29.88407h5.88407v5.88407h-5.88407z" fill="#ff0000" stroke-width="0"></path><path d="M2,24c0,-12.15026 9.84974,-22 22,-22c12.15026,0 22,9.84974 22,22c0,12.15026 -9.84974,22 -22,22c-12.15026,0 -22,-9.84974 -22,-22z" id="base 1 1 1" fill="none" stroke-width="1"></path><g id="svg2 2" stroke-width="1"><g id="g10 1"><g id="g12 1"><g clip-path="url(#clip-1)" id="g14 1"><text x="719.42399" y="635.42" transform="scale(0.02525,0.02525)" id="text20 1" fill="#000000" font-family="&quot;Courier 10 Pitch&quot;" font-weight="normal" font-size="10.56" text-anchor="start">#</text></g></g><g id="g24 1" fill="none"><g clip-path="url(#clip-2)" id="g26 1"></g></g></g></g><g id="svg2 1 1" fill="#000000" stroke-width="1" text-anchor="start"><g id="g10 1 1"><g id="g12 1 1" font-family="&quot;Courier 10 Pitch&quot;" font-weight="normal" font-size="10.56"><g id="g14 1 1"><text x="719.42399" y="635.42" transform="scale(0.02525,0.02525)" id="text20 1 1">#</text></g></g><g id="g24 1 1" font-family="Roboto, sans-serif" font-weight="400" font-size="14"><g id="g26 1 1"></g></g></g></g><g fill="#000000" stroke-width="1" font-family="Roboto, sans-serif" font-weight="400" font-size="14" text-anchor="start"></g><rect x="2" y="2" width="44" height="22" fill="none" stroke-width="1"></rect><path d="M2,24v-22h44v22z" fill="none" stroke-width="1"></path><path d="M2,24v-22h44v22z" fill="none" stroke-width="1"></path><path d="M2,24v-22h44v22z" fill="none" stroke-width="1"></path><path d="M2,24v-22h44v22z" fill="none" stroke-width="1"></path><path d="M33.625,14.375l9.375,0.625v8.75z" fill="url(#color-2)" stroke-width="1"></path><path d="M33,5l10,10h-8c-1,0 -2,-1 -2,-2z" fill="#4b8bc6" stroke-width="1"></path></g></svg>